<?xml version="1.0" encoding="UTF-8"?>
<svg id="Capa_1" data-name="Capa 1" xmlns="http://www.w3.org/2000/svg" viewBox="0 0 307.43 293.02">
  <style>
    .cls-1{
      stroke: #707070;
    }
  </style>
  <path class="cls-1" d="M160,4.56l31.76,97.76c.88,2.72,3.42,4.56,6.27,4.56h102.79c6.39,0,9.05,8.18,3.88,11.93l-83.16,60.42c-2.31,1.68-3.28,4.66-2.4,7.37l31.76,97.76c1.97,6.08-4.98,11.13-10.15,7.37l-83.16-60.42c-2.31-1.68-5.44-1.68-7.75,0l-83.16,60.42c-5.17,3.76-12.12-1.3-10.15-7.37l31.76-97.76c.88-2.72-.08-5.69-2.4-7.37L2.73,118.81c-5.17-3.76-2.51-11.93,3.88-11.93h102.79c2.86,0,5.39-1.84,6.27-4.56L147.43,4.56c1.97-6.08,10.57-6.08,12.54,0h.03Z"/>
</svg>