<?xml version="1.0" encoding="UTF-8"?>
<svg id="Capa_1" data-name="Capa 1" xmlns="http://www.w3.org/2000/svg" version="1.1" viewBox="0 0 75 75">
  <defs>
    <style>
      .cls-1 {
        stroke: #717070;
      }

      .cls-1, .cls-2, .cls-3, .cls-4 {
        stroke-miterlimit: 10;
      }

      .cls-1, .cls-3 {
        fill: none;
      }

      .cls-1, .cls-3, .cls-4 {
        stroke-width: 2px;
      }

      .cls-2, .cls-3, .cls-4 {
        stroke: #fff;
      }

      .cls-2, .cls-4 {
        fill: #717070;
      }
    </style>
  </defs>
  <path class="cls-2" d="M21.9,34.7l1.8-1.8c3.4-3.4,8.9-3.4,12.3,0l1.8,1.8c.7.7.7,1.8,0,2.5l-1.8,1.8c-3.4,3.4-8.9,3.4-12.3,0l-1.8-1.8c-.7-.7-.7-1.8,0-2.5Z"/>
  <rect class="cls-4" x="27.2" y="33.8" width="5.3" height="4.1" rx="2.1" ry="2.1"/>
  <path class="cls-3" d="M24.4,29.2c-.3-.3.1.1.1.1,4.1,4.1,8.1,8.1,12.2,12.2,0,0,.5.5.1.1"/>
  <path class="cls-1" d="M23.6,29.7c-.3-.3.1.1.1.1,4.1,4.1,8.1,8.1,12.2,12.2,0,0,.5.5.1.1"/>
</svg>