<?xml version="1.0" encoding="UTF-8"?>
<svg id="Capa_1" data-name="Capa 1" xmlns="http://www.w3.org/2000/svg" version="1.1" viewBox="0 0 75 75">
  <defs>
    <style>
      .cls-1 {
        fill: #fff;
        stroke: #1d1d1b;
        stroke-miterlimit: 10;
      }
    </style>
  </defs>
  <path class="cls-1" d="M50,47.8h-7.4s-10.2,3.6-10.2,3.6c-.8.3-1.6.2-2.3-.1l-6.2-3.1c-.9-.5-1.5-1.3-1.6-2.3l-1-9.1c-.1-1.4.9-2.6,2.2-2.8l6.6-.6c1.2-.1,2.2-1.1,2.3-2.3l.3-4.7c.1-2.1,2.3-3.4,4.2-2.6h0c.9.4,1.5,1.1,1.8,2.1l2.1,8.6c.5,2.1,2.3,3.6,4.4,3.7l5,.4c.2,0,.3.2.3.3v8.6c0,.2-.1.4-.3.4Z"/>
  <path class="cls-1" d="M47.8,37.2l4.6.3c.8,0,1.4.7,1.4,1.6l-.6,9.9c0,.8-.7,1.4-1.6,1.4h-1.6c-2.4-.2-4.3-2.3-4.2-4.8l.4-7c0-.8.7-1.4,1.6-1.4Z"/>
</svg>