<?xml version="1.0" encoding="UTF-8"?>
<svg id="Capa_1" data-name="Capa 1" xmlns="http://www.w3.org/2000/svg" version="1.1" viewBox="0 0 75 75">
  <defs>
    <style>
      .cls-1 {
        fill: none;
        stroke: #707070;
        stroke-miterlimit: 10;
        stroke-width: 2px;
      }
    </style>
  </defs>
  <path class="cls-1" d="M49.9,44.9l-25-1.8c-1,0-1.8-.7-2-1.7l-1.8-7.3c-.2-.8.4-1.5,1.2-1.6l4.4-.6,26.8-3.6c1-.1,1.8.8,1.5,1.7l-3.7,13.8c-.2.6-.7,1-1.3,1h0Z"/>
  <circle class="cls-1" cx="28.3" cy="56" r="3.1"/>
  <circle class="cls-1" cx="45.4" cy="56" r="3.1"/>
  <polyline class="cls-1" points="55 29.8 57.1 22 61.3 21.6"/>
  <g>
    <path class="cls-1" d="M48.4,48.2c-.6.5-1.4.7-2.1.7h-21.3"/>
    <path class="cls-1" d="M52.2,40.1l-1.6,5.5-.3.5c-.4.7-.9,1.3-1.5,1.8l-.4.3c-.6.5-1.4.7-2.1.7h-21.3"/>
    <path class="cls-1" d="M52.2,40.1l-1.6,5.5"/>
  </g>
  <path class="cls-1" d="M46.8,39.6"/>
  <path class="cls-1" d="M29.8,39.6"/>
  <path class="cls-1" d="M46.8,35"/>
  <path class="cls-1" d="M29.8,35"/>
</svg>