<?xml version="1.0" encoding="UTF-8"?>
<svg id="Capa_1" data-name="Capa 1" xmlns="http://www.w3.org/2000/svg" viewBox="0 0 42.23 42.65">
  <defs>
    <style>
      .cls-1 {
        fill: none;
        stroke: #ffe75d;
        stroke-miterlimit: 10;
        stroke-width: 2px;
      }

      .cls-2 {
        fill: #ffe75d;
        stroke-width: 0px;
      }
    </style>
  </defs>
  <circle class="cls-2" cx="21.09" cy="21.4" r="10.45"/>
  <path class="cls-1" d="M34.55,21.27c.06,5.56-3.49,9.08-4.14,9.71-3.81,3.65-8.41,3.74-9.31,3.74-.88,0-5.66-.09-9.52-3.94-.47-.47-3.98-4.09-3.94-9.51,0-.49.05-3.03,1.44-5.89,1.11-2.29,2.53-3.66,2.91-4.01.58-.54,1.92-1.69,3.97-2.54,2.41-.99,4.47-1.02,5.14-1.01,3.07.04,5.26,1.19,6.16,1.68,1.91,1.03,3.11,2.25,3.54,2.71.76.81,3.7,4.05,3.75,9.06Z"/>
  <path class="cls-2" d="M26.63,34.57l-4.63,7.5c-.48.78-1.62.77-2.09-.03l-4.35-7.48h11.06Z"/>
  <path class="cls-2" d="M15.56,8.08L20.19.58c.48-.78,1.62-.77,2.09.03l4.35,7.48h-11.06Z"/>
  <path class="cls-2" d="M8.08,26.81L.58,22.18c-.78-.48-.77-1.62.03-2.09l7.48-4.35v11.06Z"/>
  <path class="cls-2" d="M34.15,15.42l7.5,4.63c.78.48.77,1.62-.03,2.09l-7.48,4.35v-11.06Z"/>
  <path class="cls-2" d="M7.77,15.74l-2.03-8.58c-.21-.89.61-1.69,1.49-1.46l8.36,2.21-7.82,7.82Z"/>
  <path class="cls-2" d="M15.68,34.32l-8.58,2.03c-.89.21-1.69-.61-1.46-1.49l2.21-8.36,7.82,7.82Z"/>
  <path class="cls-2" d="M34.42,26.81l2.03,8.58c.21.89-.61,1.69-1.49,1.46l-8.36-2.21,7.82-7.82Z"/>
  <path class="cls-2" d="M26.41,7.83l8.58-2.03c.89-.21,1.69.61,1.46,1.49l-2.21,8.36-7.82-7.82Z"/>
</svg>